<?xml version="1.0" encoding="UTF-8" standalone="no"?>
<!-- Created with Inkscape (http://www.inkscape.org/) -->

<svg
   xmlns:dc="http://purl.org/dc/elements/1.1/"
   xmlns:cc="http://creativecommons.org/ns#"
   xmlns:rdf="http://www.w3.org/1999/02/22-rdf-syntax-ns#"
   xmlns:svg="http://www.w3.org/2000/svg"
   xmlns="http://www.w3.org/2000/svg"
   xmlns:sodipodi="http://sodipodi.sourceforge.net/DTD/sodipodi-0.dtd"
   xmlns:inkscape="http://www.inkscape.org/namespaces/inkscape"
   version="1.1"
   id="svg16269"
   xml:space="preserve"
   width="800"
   height="800"
   viewBox="0 0 800 800"
   sodipodi:docname="abstract-24-publicdomainvectors.org [Converted].svg"
   inkscape:version="0.92.4 (5da689c313, 2019-01-14)"><metadata
     id="metadata16275"><rdf:RDF><cc:Work
         rdf:about=""><dc:format>image/svg+xml</dc:format><dc:type
           rdf:resource="http://purl.org/dc/dcmitype/StillImage" /><dc:title></dc:title></cc:Work></rdf:RDF></metadata><defs
     id="defs16273"><clipPath
       clipPathUnits="userSpaceOnUse"
       id="clipPath16285"><path
         d="M 0,600 H 600 V 0 H 0 Z"
         id="path16283"
         inkscape:connector-curvature="0" /></clipPath><linearGradient
       x1="0"
       y1="0"
       x2="1"
       y2="0"
       gradientUnits="userSpaceOnUse"
       gradientTransform="matrix(599.52344,0,0,-599.52344,0,300)"
       spreadMethod="pad"
       id="linearGradient16305"><stop
         style="stop-opacity:1;stop-color:#f6e628"
         offset="0"
         id="stop16299" /><stop
         style="stop-opacity:1;stop-color:#f6e628"
         offset="0.59023615"
         id="stop16301" /><stop
         style="stop-opacity:1;stop-color:#e37030"
         offset="1"
         id="stop16303" /></linearGradient></defs><sodipodi:namedview
     pagecolor="#ffffff"
     bordercolor="#666666"
     borderopacity="1"
     objecttolerance="10"
     gridtolerance="10"
     guidetolerance="10"
     inkscape:pageopacity="0"
     inkscape:pageshadow="2"
     inkscape:window-width="1920"
     inkscape:window-height="1018"
     id="namedview16271"
     showgrid="false"
     inkscape:zoom="0.80791935"
     inkscape:cx="430.50847"
     inkscape:cy="410.16949"
     inkscape:window-x="-8"
     inkscape:window-y="-8"
     inkscape:window-maximized="1"
     inkscape:current-layer="g16277" /><g
     id="g16277"
     inkscape:groupmode="layer"
     inkscape:label="abstract-24-publicdomainvectors.org [Converted]"
     transform="matrix(1.3333333,0,0,-1.3333333,0,800)"><g
       id="g16279"><g
         id="g16281"
         clip-path="url(#clipPath16285)"><g
           id="g16287"><g
             id="g16289"><g
               id="g16295"><g
                 id="g16297"><path
                   d="M 599.523,0 H 0 v 600 h 599.523 z"
                   style="fill:url(#linearGradient16305);stroke:none"
                   id="path16307"
                   inkscape:connector-curvature="0" /></g></g></g></g><path
           d="m 439.581,258.844 c 10e-4,-6.942 10e-4,-13.887 10e-4,-20.837 2.772,1.676 5.605,3.24 8.689,4.399 -0.002,6.488 -0.005,12.97 -0.008,19.448 -3.062,-0.788 -5.903,-1.862 -8.682,-3.01"
           style="fill:#ffffff;fill-opacity:1;fill-rule:nonzero;stroke:none"
           id="path16309"
           inkscape:connector-curvature="0" /><path
           d="m 436.829,257.697 c -0.001,-7.117 -0.002,-14.238 -0.002,-21.365 -3.066,-1.849 -6.493,-3.767 -10.514,-5.346 0.004,7.691 0.008,15.374 0.013,23.054 3.99,1.072 7.431,2.386 10.503,3.657"
           style="fill:#ffffff;fill-opacity:1;fill-rule:nonzero;stroke:none"
           id="path16311"
           inkscape:connector-curvature="0" /><path
           d="m 439.58,283.795 c 0,-6.925 0,-13.855 0.001,-20.789 2.78,1.045 5.622,2.019 8.68,2.734 -0.003,6.473 -0.006,12.942 -0.009,19.406 -3.041,-0.351 -5.888,-0.833 -8.672,-1.351"
           style="fill:#ffffff;fill-opacity:1;fill-rule:nonzero;stroke:none"
           id="path16313"
           inkscape:connector-curvature="0" /><path
           d="m 436.831,283.281 c -0.001,-7.1 -0.002,-14.206 -0.002,-21.315 -3.074,-1.156 -6.516,-2.348 -10.501,-3.321 0.005,7.67 0.009,15.335 0.012,22.996 3.966,0.477 7.412,1.067 10.491,1.64"
           style="fill:#ffffff;fill-opacity:1;fill-rule:nonzero;stroke:none"
           id="path16315"
           inkscape:connector-curvature="0" /><path
           d="m 439.578,308.69 c 0,-6.909 0,-13.823 0.001,-20.742 2.785,0.413 5.633,0.796 8.671,1.075 -0.003,6.459 -0.005,12.915 -0.009,19.366 -3.033,0.079 -5.879,0.186 -8.663,0.301"
           style="fill:#ffffff;fill-opacity:1;fill-rule:nonzero;stroke:none"
           id="path16317"
           inkscape:connector-curvature="0" /><path
           d="m 436.833,308.806 c -0.001,-7.084 -0.002,-14.173 -0.002,-21.267 -3.079,-0.454 -6.526,-0.924 -10.487,-1.306 0.003,7.652 0.007,15.298 0.011,22.939 3.954,-0.108 7.4,-0.238 10.478,-0.366"
           style="fill:#ffffff;fill-opacity:1;fill-rule:nonzero;stroke:none"
           id="path16319"
           inkscape:connector-curvature="0" /><path
           d="m 439.576,333.53 c 0,-6.894 10e-4,-13.793 10e-4,-20.695 2.783,-0.222 5.63,-0.427 8.663,-0.577 -0.004,6.445 -0.006,12.888 -0.01,19.325 -3.04,0.508 -5.877,1.202 -8.654,1.947"
           style="fill:#ffffff;fill-opacity:1;fill-rule:nonzero;stroke:none"
           id="path16321"
           inkscape:connector-curvature="0" /><path
           d="m 436.834,334.271 c -10e-4,-7.068 -10e-4,-14.14 -10e-4,-21.217 -3.076,0.244 -6.521,0.496 -10.476,0.7 0.004,7.632 0.009,15.259 0.013,22.881 3.96,-0.692 7.396,-1.541 10.464,-2.364"
           style="fill:#ffffff;fill-opacity:1;fill-rule:nonzero;stroke:none"
           id="path16323"
           inkscape:connector-curvature="0" /><path
           d="m 439.574,358.313 c 0,-6.878 10e-4,-13.761 0.002,-20.649 2.774,-0.849 5.612,-1.642 8.653,-2.22 -0.002,6.431 -0.005,12.86 -0.008,19.284 -3.059,0.94 -5.883,2.218 -8.647,3.585"
           style="fill:#ffffff;fill-opacity:1;fill-rule:nonzero;stroke:none"
           id="path16325"
           inkscape:connector-curvature="0" /><path
           d="m 436.835,359.677 c -10e-4,-7.051 -10e-4,-14.108 -10e-4,-21.167 -3.066,0.938 -6.499,1.906 -10.461,2.695 0.004,7.613 0.008,15.221 0.012,22.823 3.98,-1.279 7.397,-2.84 10.45,-4.351"
           style="fill:#ffffff;fill-opacity:1;fill-rule:nonzero;stroke:none"
           id="path16327"
           inkscape:connector-curvature="0" /><path
           d="m 439.572,383.04 c 10e-4,-6.863 10e-4,-13.73 0.002,-20.602 2.761,-1.47 5.583,-2.843 8.645,-3.858 -0.003,6.419 -0.006,12.833 -0.009,19.244 -3.083,1.381 -5.89,3.235 -8.638,5.216"
           style="fill:#ffffff;fill-opacity:1;fill-rule:nonzero;stroke:none"
           id="path16329"
           inkscape:connector-curvature="0" /><path
           d="m 436.837,385.024 c -10e-4,-7.035 -10e-4,-14.075 -0.002,-21.119 -3.05,1.626 -6.463,3.303 -10.447,4.682 0.004,7.595 0.008,15.184 0.012,22.767 4.008,-1.88 7.4,-4.142 10.437,-6.33"
           style="fill:#ffffff;fill-opacity:1;fill-rule:nonzero;stroke:none"
           id="path16331"
           inkscape:connector-curvature="0" /><path
           d="m 450.224,262.318 c 0.004,-6.407 0.006,-12.818 0.01,-19.233 3.527,1.114 7.552,1.832 12.056,2.238 -0.007,6.179 -0.013,12.356 -0.02,18.528 -4.495,-0.279 -8.504,-0.764 -12.046,-1.533"
           style="fill:#ffffff;fill-opacity:1;fill-rule:nonzero;stroke:none"
           id="path16333"
           inkscape:connector-curvature="0" /><path
           d="m 423.653,253.372 c -0.006,-7.781 -0.009,-15.569 -0.015,-23.361 -4.957,-1.675 -10.729,-2.882 -17.218,-3.591 0.011,8.172 0.022,16.337 0.035,24.496 6.471,0.485 12.221,1.304 17.198,2.456"
           style="fill:#ffffff;fill-opacity:1;fill-rule:nonzero;stroke:none"
           id="path16335"
           inkscape:connector-curvature="0" /><path
           d="m 450.211,285.354 c 0.004,-6.393 0.007,-12.791 0.01,-19.193 3.547,0.697 7.55,1.14 12.045,1.391 -0.009,6.167 -0.013,12.331 -0.02,18.49 -4.486,-0.124 -8.482,-0.341 -12.035,-0.688"
           style="fill:#ffffff;fill-opacity:1;fill-rule:nonzero;stroke:none"
           id="path16337"
           inkscape:connector-curvature="0" /><path
           d="m 423.672,281.341 c -0.006,-7.762 -0.01,-15.529 -0.016,-23.303 -4.982,-1.045 -10.726,-1.789 -17.194,-2.229 0.013,8.149 0.023,16.293 0.035,24.43 6.455,0.217 12.183,0.582 17.175,1.102"
           style="fill:#ffffff;fill-opacity:1;fill-rule:nonzero;stroke:none"
           id="path16339"
           inkscape:connector-curvature="0" /><path
           d="m 450.197,308.343 c 0.004,-6.381 0.008,-12.766 0.011,-19.154 3.556,0.277 7.548,0.449 12.032,0.547 -0.005,6.155 -0.011,12.306 -0.019,18.453 -4.481,0.028 -8.468,0.077 -12.024,0.154"
           style="fill:#ffffff;fill-opacity:1;fill-rule:nonzero;stroke:none"
           id="path16341"
           inkscape:connector-curvature="0" /><path
           d="m 423.69,309.238 c -0.005,-7.742 -0.01,-15.49 -0.015,-23.243 -4.992,-0.412 -10.719,-0.703 -17.171,-0.876 0.011,8.127 0.024,16.249 0.035,24.365 6.443,-0.048 12.16,-0.13 17.151,-0.246"
           style="fill:#ffffff;fill-opacity:1;fill-rule:nonzero;stroke:none"
           id="path16343"
           inkscape:connector-curvature="0" /><path
           d="m 450.186,331.283 c 0.002,-6.368 0.006,-12.739 0.01,-19.113 3.553,-0.149 7.54,-0.241 12.022,-0.294 -0.008,6.143 -0.015,12.28 -0.021,18.416 -4.478,0.179 -8.468,0.492 -12.011,0.991"
           style="fill:#ffffff;fill-opacity:1;fill-rule:nonzero;stroke:none"
           id="path16345"
           inkscape:connector-curvature="0" /><path
           d="m 423.709,337.065 c -0.006,-7.722 -0.01,-15.45 -0.016,-23.184 -4.988,0.222 -10.704,0.377 -17.146,0.47 0.013,8.106 0.022,16.207 0.034,24.301 6.439,-0.312 12.155,-0.841 17.128,-1.587"
           style="fill:#ffffff;fill-opacity:1;fill-rule:nonzero;stroke:none"
           id="path16347"
           inkscape:connector-curvature="0" /><path
           d="m 450.173,354.175 c 0.005,-6.354 0.007,-12.712 0.011,-19.073 3.54,-0.569 7.531,-0.926 12.008,-1.131 -0.006,6.13 -0.011,12.256 -0.018,18.379 -4.48,0.331 -8.479,0.913 -12.001,1.825"
           style="fill:#ffffff;fill-opacity:1;fill-rule:nonzero;stroke:none"
           id="path16349"
           inkscape:connector-curvature="0" /><path
           d="m 423.727,364.822 c -0.005,-7.703 -0.009,-15.412 -0.015,-23.126 -4.969,0.851 -10.686,1.45 -17.123,1.81 0.013,8.085 0.023,16.164 0.033,24.236 6.441,-0.578 12.164,-1.554 17.105,-2.92"
           style="fill:#ffffff;fill-opacity:1;fill-rule:nonzero;stroke:none"
           id="path16351"
           inkscape:connector-curvature="0" /><path
           d="m 450.16,377.02 c 0.004,-6.342 0.008,-12.687 0.011,-19.035 3.517,-0.981 7.517,-1.607 11.998,-1.964 -0.007,6.118 -0.015,12.232 -0.021,18.343 -4.482,0.481 -8.495,1.335 -11.988,2.656"
           style="fill:#ffffff;fill-opacity:1;fill-rule:nonzero;stroke:none"
           id="path16353"
           inkscape:connector-curvature="0" /><path
           d="m 423.745,392.509 c -0.005,-7.684 -0.01,-15.373 -0.015,-23.068 -4.934,1.47 -10.66,2.52 -17.099,3.142 0.011,8.063 0.023,16.121 0.034,24.173 6.445,-0.842 12.182,-2.277 17.08,-4.247"
           style="fill:#ffffff;fill-opacity:1;fill-rule:nonzero;stroke:none"
           id="path16355"
           inkscape:connector-curvature="0" /><path
           d="m 465.217,264.001 c 0.008,-6.149 0.015,-12.302 0.023,-18.458 5.349,0.322 11.252,0.306 17.663,0.126 -0.013,6.144 -0.025,12.282 -0.038,18.419 -6.405,0.123 -12.301,0.133 -17.648,-0.087"
           style="fill:#ffffff;fill-opacity:1;fill-rule:nonzero;stroke:none"
           id="path16357"
           inkscape:connector-curvature="0" /><path
           d="m 402.249,250.65 c -0.014,-8.2 -0.028,-16.406 -0.04,-24.618 -7.493,-0.565 -15.504,-0.552 -23.844,-0.224 0.022,8.236 0.043,16.465 0.066,24.689 8.334,-0.226 16.329,-0.232 23.818,0.153"
           style="fill:#ffffff;fill-opacity:1;fill-rule:nonzero;stroke:none"
           id="path16359"
           inkscape:connector-curvature="0" /><path
           d="m 465.19,286.109 c 0.008,-6.136 0.015,-12.276 0.022,-18.42 5.348,0.202 11.241,0.19 17.646,0.079 -0.012,6.129 -0.024,12.257 -0.037,18.38 -6.4,0.056 -12.288,0.061 -17.631,-0.039"
           style="fill:#ffffff;fill-opacity:1;fill-rule:nonzero;stroke:none"
           id="path16361"
           inkscape:connector-curvature="0" /><path
           d="m 402.297,280.12 c -0.014,-8.178 -0.026,-16.362 -0.041,-24.553 -7.487,-0.35 -15.479,-0.342 -23.812,-0.138 0.022,8.213 0.044,16.421 0.068,24.623 8.323,-0.102 16.302,-0.106 23.785,0.068"
           style="fill:#ffffff;fill-opacity:1;fill-rule:nonzero;stroke:none"
           id="path16363"
           inkscape:connector-curvature="0" /><path
           d="m 465.162,308.174 c 0.008,-6.124 0.017,-12.252 0.024,-18.384 5.342,0.079 11.228,0.075 17.628,0.031 -0.012,6.118 -0.023,12.233 -0.037,18.344 -6.394,-0.012 -12.276,-0.013 -17.615,0.009"
           style="fill:#ffffff;fill-opacity:1;fill-rule:nonzero;stroke:none"
           id="path16365"
           inkscape:connector-curvature="0" /><path
           d="m 402.345,309.511 c -0.013,-8.157 -0.027,-16.319 -0.041,-24.488 -7.481,-0.136 -15.457,-0.134 -23.779,-0.054 0.023,8.192 0.045,16.378 0.066,24.557 8.313,0.023 16.28,0.024 23.754,-0.015"
           style="fill:#ffffff;fill-opacity:1;fill-rule:nonzero;stroke:none"
           id="path16367"
           inkscape:connector-curvature="0" /><path
           d="m 465.136,330.194 c 0.007,-6.112 0.015,-12.227 0.023,-18.346 5.337,-0.043 11.217,-0.041 17.611,-0.017 -0.013,6.106 -0.026,12.208 -0.038,18.308 -6.386,-0.08 -12.262,-0.088 -17.596,0.055"
           style="fill:#ffffff;fill-opacity:1;fill-rule:nonzero;stroke:none"
           id="path16369"
           inkscape:connector-curvature="0" /><path
           d="m 402.393,338.823 c -0.015,-8.135 -0.026,-16.275 -0.039,-24.422 -7.472,0.076 -15.438,0.074 -23.749,0.03 0.02,8.17 0.042,16.334 0.066,24.492 8.301,0.145 16.261,0.152 23.722,-0.1"
           style="fill:#ffffff;fill-opacity:1;fill-rule:nonzero;stroke:none"
           id="path16371"
           inkscape:connector-curvature="0" /><path
           d="m 465.109,352.17 c 0.007,-6.1 0.014,-12.203 0.023,-18.31 5.331,-0.163 11.206,-0.154 17.593,-0.063 -0.013,6.094 -0.025,12.183 -0.037,18.271 -6.38,-0.146 -12.253,-0.162 -17.579,0.102"
           style="fill:#ffffff;fill-opacity:1;fill-rule:nonzero;stroke:none"
           id="path16373"
           inkscape:connector-curvature="0" /><path
           d="m 402.44,368.058 c -0.013,-8.114 -0.025,-16.232 -0.039,-24.357 -7.46,0.285 -15.417,0.278 -23.716,0.113 0.021,8.148 0.044,16.29 0.065,24.426 8.29,0.267 16.244,0.279 23.69,-0.182"
           style="fill:#ffffff;fill-opacity:1;fill-rule:nonzero;stroke:none"
           id="path16375"
           inkscape:connector-curvature="0" /><path
           d="m 465.083,374.103 c 0.007,-6.088 0.014,-12.18 0.021,-18.274 5.325,-0.284 11.197,-0.267 17.576,-0.11 -0.012,6.081 -0.023,12.159 -0.036,18.234 -6.373,-0.214 -12.245,-0.236 -17.561,0.15"
           style="fill:#ffffff;fill-opacity:1;fill-rule:nonzero;stroke:none"
           id="path16377"
           inkscape:connector-curvature="0" /><path
           d="m 402.487,397.214 c -0.011,-8.091 -0.025,-16.189 -0.038,-24.292 -7.444,0.495 -15.397,0.486 -23.685,0.197 0.023,8.126 0.043,16.246 0.065,24.361 8.277,0.387 16.23,0.401 23.658,-0.266"
           style="fill:#ffffff;fill-opacity:1;fill-rule:nonzero;stroke:none"
           id="path16379"
           inkscape:connector-curvature="0" /><path
           d="m 486.934,263.996 c 0.014,-6.149 0.028,-12.303 0.041,-18.46 7.101,-0.261 14.489,-0.666 22.022,-1.04 -0.019,6.267 -0.041,12.529 -0.059,18.789 -7.528,0.253 -14.909,0.533 -22.004,0.711"
           style="fill:#ffffff;fill-opacity:1;fill-rule:nonzero;stroke:none"
           id="path16381"
           inkscape:connector-curvature="0" /><path
           d="m 373.328,250.659 c -0.024,-8.198 -0.048,-16.403 -0.072,-24.614 -8.589,0.456 -17.15,1.153 -25.599,1.773 0.031,8.025 0.066,16.042 0.099,24.055 8.44,-0.425 16.994,-0.901 25.572,-1.214"
           style="fill:#ffffff;fill-opacity:1;fill-rule:nonzero;stroke:none"
           id="path16383"
           inkscape:connector-curvature="0" /><path
           d="m 486.886,286.107 c 0.015,-6.137 0.028,-12.278 0.04,-18.422 7.093,-0.164 14.474,-0.415 21.999,-0.647 -0.022,6.254 -0.041,12.504 -0.061,18.75 -7.517,0.114 -14.893,0.239 -21.978,0.319"
           style="fill:#ffffff;fill-opacity:1;fill-rule:nonzero;stroke:none"
           id="path16385"
           inkscape:connector-curvature="0" /><path
           d="m 373.415,280.124 c -0.027,-8.177 -0.048,-16.359 -0.073,-24.549 -8.575,0.282 -17.127,0.721 -25.567,1.102 0.038,8.003 0.07,16 0.099,23.991 8.43,-0.189 16.975,-0.406 25.541,-0.544"
           style="fill:#ffffff;fill-opacity:1;fill-rule:nonzero;stroke:none"
           id="path16387"
           inkscape:connector-curvature="0" /><path
           d="m 486.836,308.175 c 0.015,-6.126 0.025,-12.254 0.041,-18.386 7.085,-0.064 14.46,-0.163 21.976,-0.255 -0.018,6.241 -0.04,12.478 -0.061,18.712 -7.509,-0.025 -14.877,-0.054 -21.956,-0.071"
           style="fill:#ffffff;fill-opacity:1;fill-rule:nonzero;stroke:none"
           id="path16389"
           inkscape:connector-curvature="0" /><path
           d="m 373.501,309.51 c -0.024,-8.155 -0.048,-16.316 -0.072,-24.483 -8.563,0.111 -17.108,0.282 -25.535,0.433 0.03,7.981 0.068,15.958 0.098,23.929 8.419,0.042 16.954,0.09 25.509,0.121"
           style="fill:#ffffff;fill-opacity:1;fill-rule:nonzero;stroke:none"
           id="path16391"
           inkscape:connector-curvature="0" /><path
           d="m 486.788,330.197 c 0.013,-6.113 0.026,-12.229 0.041,-18.349 7.076,0.034 14.443,0.088 21.952,0.136 -0.022,6.229 -0.039,12.453 -0.059,18.674 -7.503,-0.165 -14.863,-0.345 -21.934,-0.461"
           style="fill:#ffffff;fill-opacity:1;fill-rule:nonzero;stroke:none"
           id="path16393"
           inkscape:connector-curvature="0" /><path
           d="m 373.588,338.817 c -0.025,-8.132 -0.048,-16.272 -0.072,-24.417 -8.553,-0.059 -17.086,-0.151 -25.504,-0.232 0.03,7.961 0.067,15.917 0.097,23.866 8.41,0.272 16.933,0.584 25.479,0.783"
           style="fill:#ffffff;fill-opacity:1;fill-rule:nonzero;stroke:none"
           id="path16395"
           inkscape:connector-curvature="0" /><path
           d="m 486.739,352.177 c 0.012,-6.102 0.027,-12.206 0.04,-18.314 7.071,0.133 14.429,0.337 21.93,0.526 -0.019,6.215 -0.038,12.427 -0.06,18.635 -7.495,-0.303 -14.845,-0.634 -21.91,-0.847"
           style="fill:#ffffff;fill-opacity:1;fill-rule:nonzero;stroke:none"
           id="path16397"
           inkscape:connector-curvature="0" /><path
           d="m 373.673,368.048 c -0.025,-8.112 -0.048,-16.23 -0.071,-24.354 -8.542,-0.227 -17.065,-0.582 -25.473,-0.893 0.033,7.941 0.067,15.876 0.099,23.804 8.398,0.503 16.91,1.071 25.445,1.443"
           style="fill:#ffffff;fill-opacity:1;fill-rule:nonzero;stroke:none"
           id="path16399"
           inkscape:connector-curvature="0" /><path
           d="m 486.691,374.11 c 0.014,-6.088 0.028,-12.179 0.04,-18.275 7.063,0.229 14.413,0.587 21.906,0.912 -0.02,6.203 -0.038,12.402 -0.06,18.599 -7.486,-0.444 -14.828,-0.924 -21.886,-1.236"
           style="fill:#ffffff;fill-opacity:1;fill-rule:nonzero;stroke:none"
           id="path16401"
           inkscape:connector-curvature="0" /><path
           d="m 373.759,397.199 c -0.022,-8.09 -0.047,-16.185 -0.071,-24.288 -8.535,-0.394 -17.043,-1.012 -25.441,-1.551 0.03,7.919 0.064,15.834 0.097,23.743 8.389,0.727 16.887,1.562 25.415,2.096"
           style="fill:#ffffff;fill-opacity:1;fill-rule:nonzero;stroke:none"
           id="path16403"
           inkscape:connector-curvature="0" /><path
           d="m 513.45,263.136 c 0.021,-6.282 0.042,-12.568 0.064,-18.857 7.383,-0.34 14.415,-0.6 20.89,-0.581 -0.027,6.351 -0.055,12.698 -0.083,19.041 -6.469,-0.014 -13.494,0.163 -20.871,0.397"
           style="fill:#ffffff;fill-opacity:1;fill-rule:nonzero;stroke:none"
           id="path16405"
           inkscape:connector-curvature="0" /><path
           d="m 342.773,252.113 c -0.033,-7.974 -0.066,-15.956 -0.102,-23.942 -8.148,0.555 -16.104,0.942 -23.884,0.915 0.042,7.891 0.088,15.775 0.129,23.654 7.772,0.022 15.717,-0.248 23.857,-0.627"
           style="fill:#ffffff;fill-opacity:1;fill-rule:nonzero;stroke:none"
           id="path16407"
           inkscape:connector-curvature="0" /><path
           d="m 513.372,285.722 c 0.022,-6.27 0.044,-12.542 0.064,-18.819 7.377,-0.214 14.399,-0.373 20.869,-0.36 -0.028,6.337 -0.053,12.67 -0.082,19 -6.463,-0.007 -13.481,0.074 -20.851,0.179"
           style="fill:#ffffff;fill-opacity:1;fill-rule:nonzero;stroke:none"
           id="path16409"
           inkscape:connector-curvature="0" /><path
           d="m 342.898,280.776 c -0.034,-7.954 -0.066,-15.915 -0.103,-23.88 -8.14,0.343 -16.084,0.588 -23.855,0.568 0.05,7.87 0.089,15.734 0.128,23.594 7.763,0.008 15.698,-0.114 23.83,-0.282"
           style="fill:#ffffff;fill-opacity:1;fill-rule:nonzero;stroke:none"
           id="path16411"
           inkscape:connector-curvature="0" /><path
           d="m 513.296,308.261 c 0.02,-6.256 0.043,-12.516 0.063,-18.78 7.37,-0.084 14.384,-0.147 20.846,-0.141 -0.027,6.323 -0.056,12.643 -0.083,18.961 -6.455,0.002 -13.465,-0.017 -20.826,-0.04"
           style="fill:#ffffff;fill-opacity:1;fill-rule:nonzero;stroke:none"
           id="path16413"
           inkscape:connector-curvature="0" /><path
           d="m 343.022,309.364 c -0.033,-7.933 -0.069,-15.873 -0.103,-23.818 -8.131,0.135 -16.065,0.231 -23.824,0.224 0.042,7.849 0.084,15.693 0.127,23.532 7.752,-0.002 15.675,0.024 23.8,0.062"
           style="fill:#ffffff;fill-opacity:1;fill-rule:nonzero;stroke:none"
           id="path16415"
           inkscape:connector-curvature="0" /><path
           d="m 513.219,330.754 c 0.02,-6.243 0.042,-12.49 0.063,-18.741 7.361,0.045 14.368,0.079 20.824,0.076 -0.028,6.31 -0.055,12.618 -0.083,18.922 -6.449,0.01 -13.451,-0.106 -20.804,-0.257"
           style="fill:#ffffff;fill-opacity:1;fill-rule:nonzero;stroke:none"
           id="path16417"
           inkscape:connector-curvature="0" /><path
           d="m 343.146,337.879 c -0.037,-7.913 -0.067,-15.832 -0.103,-23.757 -8.122,-0.072 -16.045,-0.124 -23.796,-0.12 0.042,7.83 0.084,15.654 0.127,23.473 7.743,-0.015 15.658,0.16 23.772,0.404"
           style="fill:#ffffff;fill-opacity:1;fill-rule:nonzero;stroke:none"
           id="path16419"
           inkscape:connector-curvature="0" /><path
           d="m 513.143,353.201 c 0.023,-6.23 0.041,-12.465 0.063,-18.703 7.353,0.173 14.353,0.305 20.802,0.293 -0.029,6.299 -0.056,12.593 -0.083,18.884 -6.443,0.017 -13.438,-0.194 -20.782,-0.474"
           style="fill:#ffffff;fill-opacity:1;fill-rule:nonzero;stroke:none"
           id="path16421"
           inkscape:connector-curvature="0" /><path
           d="m 343.268,366.318 c -0.033,-7.892 -0.065,-15.791 -0.101,-23.694 -8.112,-0.276 -16.027,-0.477 -23.768,-0.461 0.043,7.81 0.084,15.613 0.127,23.411 7.733,-0.023 15.64,0.295 23.742,0.744"
           style="fill:#ffffff;fill-opacity:1;fill-rule:nonzero;stroke:none"
           id="path16423"
           inkscape:connector-curvature="0" /><path
           d="m 513.065,375.603 c 0.021,-6.218 0.042,-12.44 0.064,-18.665 7.344,0.301 14.338,0.529 20.78,0.509 -0.028,6.285 -0.058,12.567 -0.082,18.845 -6.436,0.024 -13.425,-0.283 -20.762,-0.689"
           style="fill:#ffffff;fill-opacity:1;fill-rule:nonzero;stroke:none"
           id="path16425"
           inkscape:connector-curvature="0" /><path
           d="m 343.392,394.686 c -0.034,-7.873 -0.063,-15.751 -0.103,-23.634 -8.1,-0.484 -16.006,-0.832 -23.737,-0.801 0.042,7.789 0.083,15.573 0.126,23.353 7.723,-0.037 15.623,0.426 23.714,1.082"
           style="fill:#ffffff;fill-opacity:1;fill-rule:nonzero;stroke:none"
           id="path16427"
           inkscape:connector-curvature="0" /><path
           d="m 537.861,262.77 c 0.028,-6.339 0.059,-12.681 0.085,-19.027 5.237,0.123 9.575,0.451 12.873,1.278 -0.03,6.212 -0.065,12.419 -0.095,18.624 -3.316,-0.569 -7.634,-0.793 -12.863,-0.875"
           style="fill:#ffffff;fill-opacity:1;fill-rule:nonzero;stroke:none"
           id="path16429"
           inkscape:connector-curvature="0" /><path
           d="m 314.314,252.691 c -0.044,-7.885 -0.087,-15.777 -0.133,-23.674 -7.628,-0.204 -15.275,-0.875 -22.993,-2.077 0.059,8.117 0.104,16.227 0.163,24.331 7.717,0.825 15.345,1.284 22.963,1.42"
           style="fill:#ffffff;fill-opacity:1;fill-rule:nonzero;stroke:none"
           id="path16431"
           inkscape:connector-curvature="0" /><path
           d="m 537.758,285.557 c 0.028,-6.326 0.058,-12.654 0.086,-18.987 5.228,0.076 9.542,0.278 12.86,0.795 -0.03,6.198 -0.063,12.394 -0.094,18.585 -3.327,-0.256 -7.629,-0.356 -12.852,-0.393"
           style="fill:#ffffff;fill-opacity:1;fill-rule:nonzero;stroke:none"
           id="path16433"
           inkscape:connector-curvature="0" /><path
           d="m 314.474,281.035 c -0.043,-7.865 -0.088,-15.737 -0.133,-23.614 -7.615,-0.126 -15.24,-0.544 -22.959,-1.29 0.052,8.096 0.105,16.184 0.162,24.268 7.713,0.369 15.325,0.575 22.93,0.636"
           style="fill:#ffffff;fill-opacity:1;fill-rule:nonzero;stroke:none"
           id="path16435"
           inkscape:connector-curvature="0" /><path
           d="m 537.655,308.298 c 0.031,-6.313 0.059,-12.628 0.087,-18.947 5.221,0.029 9.521,0.109 12.85,0.312 -0.034,6.186 -0.065,12.368 -0.096,18.547 -3.328,0.058 -7.624,0.079 -12.841,0.088"
           style="fill:#ffffff;fill-opacity:1;fill-rule:nonzero;stroke:none"
           id="path16437"
           inkscape:connector-curvature="0" /><path
           d="m 314.632,309.307 c -0.042,-7.846 -0.086,-15.698 -0.132,-23.554 -7.603,-0.049 -15.212,-0.212 -22.923,-0.507 0.054,8.073 0.106,16.141 0.16,24.202 7.702,-0.082 15.301,-0.128 22.895,-0.141"
           style="fill:#ffffff;fill-opacity:1;fill-rule:nonzero;stroke:none"
           id="path16439"
           inkscape:connector-curvature="0" /><path
           d="m 537.553,330.991 c 0.027,-6.299 0.054,-12.601 0.086,-18.908 5.215,-0.016 9.51,-0.058 12.84,-0.167 -0.034,6.173 -0.066,12.343 -0.096,18.51 -3.32,0.367 -7.616,0.512 -12.83,0.565"
           style="fill:#ffffff;fill-opacity:1;fill-rule:nonzero;stroke:none"
           id="path16441"
           inkscape:connector-curvature="0" /><path
           d="m 314.791,337.505 c -0.045,-7.825 -0.089,-15.656 -0.132,-23.493 -7.593,0.026 -15.189,0.113 -22.889,0.271 0.055,8.052 0.106,16.099 0.161,24.14 7.685,-0.533 15.276,-0.83 22.86,-0.918"
           style="fill:#ffffff;fill-opacity:1;fill-rule:nonzero;stroke:none"
           id="path16443"
           inkscape:connector-curvature="0" /><path
           d="m 537.45,353.638 c 0.034,-6.286 0.059,-12.575 0.085,-18.869 5.214,-0.061 9.512,-0.226 12.828,-0.646 -0.029,6.161 -0.063,12.318 -0.093,18.473 -3.299,0.675 -7.61,0.946 -12.82,1.042"
           style="fill:#ffffff;fill-opacity:1;fill-rule:nonzero;stroke:none"
           id="path16445"
           inkscape:connector-curvature="0" /><path
           d="m 314.949,365.632 c -0.043,-7.807 -0.087,-15.617 -0.132,-23.434 -7.583,0.102 -15.172,0.44 -22.854,1.046 0.054,8.031 0.106,16.057 0.16,24.075 7.664,-0.979 15.25,-1.527 22.826,-1.687"
           style="fill:#ffffff;fill-opacity:1;fill-rule:nonzero;stroke:none"
           id="path16447"
           inkscape:connector-curvature="0" /><path
           d="m 537.348,376.238 c 0.028,-6.273 0.058,-12.55 0.085,-18.831 5.21,-0.105 9.521,-0.395 12.818,-1.121 -0.03,6.149 -0.063,12.293 -0.094,18.436 -3.273,0.973 -7.602,1.373 -12.809,1.516"
           style="fill:#ffffff;fill-opacity:1;fill-rule:nonzero;stroke:none"
           id="path16449"
           inkscape:connector-curvature="0" /><path
           d="m 315.106,393.685 c -0.045,-7.786 -0.088,-15.577 -0.13,-23.373 -7.575,0.177 -15.162,0.766 -22.821,1.816 0.052,8.011 0.105,16.015 0.159,24.014 7.638,-1.422 15.224,-2.215 22.792,-2.457"
           style="fill:#ffffff;fill-opacity:1;fill-rule:nonzero;stroke:none"
           id="path16451"
           inkscape:connector-curvature="0" /><path
           d="m 552.268,263.959 c 0.031,-6.155 0.065,-12.314 0.096,-18.478 1.936,0.688 3.18,1.815 3.453,2.998 -0.03,5.848 -0.063,11.692 -0.093,17.533 -0.293,-0.868 -1.556,-1.589 -3.456,-2.053"
           style="fill:#ffffff;fill-opacity:1;fill-rule:nonzero;stroke:none"
           id="path16453"
           inkscape:connector-curvature="0" /><path
           d="m 286.618,250.726 c -0.057,-8.189 -0.114,-16.384 -0.168,-24.584 -8.162,-1.476 -16.697,-3.548 -25.729,-6.018 0.068,8.835 0.141,17.664 0.214,26.485 9.025,1.69 17.547,3.106 25.683,4.117"
           style="fill:#ffffff;fill-opacity:1;fill-rule:nonzero;stroke:none"
           id="path16455"
           inkscape:connector-curvature="0" /><path
           d="m 552.154,286.091 c 0.03,-6.144 0.065,-12.29 0.095,-18.441 1.896,0.418 3.156,1.058 3.456,1.865 -0.031,5.835 -0.062,11.668 -0.094,17.498 -0.369,-0.495 -1.584,-0.717 -3.457,-0.922"
           style="fill:#ffffff;fill-opacity:1;fill-rule:nonzero;stroke:none"
           id="path16457"
           inkscape:connector-curvature="0" /><path
           d="m 286.82,280.153 c -0.057,-8.167 -0.113,-16.339 -0.168,-24.517 -8.131,-0.917 -16.651,-2.205 -25.674,-3.738 0.066,8.811 0.144,17.614 0.211,26.41 9.013,0.758 17.519,1.393 25.631,1.845"
           style="fill:#ffffff;fill-opacity:1;fill-rule:nonzero;stroke:none"
           id="path16459"
           inkscape:connector-curvature="0" /><path
           d="m 552.039,308.179 c 0.03,-6.132 0.065,-12.266 0.096,-18.404 1.871,0.163 3.062,0.309 3.458,0.733 -0.028,5.825 -0.063,11.646 -0.093,17.465 -0.483,0.145 -1.593,0.16 -3.461,0.206"
           style="fill:#ffffff;fill-opacity:1;fill-rule:nonzero;stroke:none"
           id="path16461"
           inkscape:connector-curvature="0" /><path
           d="m 287.021,309.503 c -0.053,-8.145 -0.115,-16.295 -0.167,-24.452 -8.108,-0.361 -16.611,-0.865 -25.623,-1.469 0.068,8.784 0.14,17.563 0.212,26.333 8.996,-0.169 17.485,-0.311 25.578,-0.412"
           style="fill:#ffffff;fill-opacity:1;fill-rule:nonzero;stroke:none"
           id="path16463"
           inkscape:connector-curvature="0" /><path
           d="m 551.925,330.222 c 0.031,-6.119 0.064,-12.242 0.095,-18.367 1.869,-0.087 3.004,-0.135 3.461,-0.393 -0.03,5.814 -0.059,11.624 -0.092,17.432 -0.329,0.637 -1.582,1.031 -3.464,1.328"
           style="fill:#ffffff;fill-opacity:1;fill-rule:nonzero;stroke:none"
           id="path16465"
           inkscape:connector-curvature="0" /><path
           d="m 287.223,338.775 c -0.051,-8.123 -0.11,-16.253 -0.167,-24.387 -8.092,0.192 -16.578,0.464 -25.57,0.786 0.067,8.76 0.138,17.513 0.211,26.258 8.971,-1.091 17.443,-2.008 25.526,-2.657"
           style="fill:#ffffff;fill-opacity:1;fill-rule:nonzero;stroke:none"
           id="path16467"
           inkscape:connector-curvature="0" /><path
           d="m 551.812,352.221 c 0.03,-6.107 0.064,-12.217 0.094,-18.329 1.885,-0.34 3.143,-0.821 3.464,-1.516 -0.031,5.803 -0.063,11.603 -0.093,17.398 -0.29,1 -1.551,1.89 -3.465,2.447"
           style="fill:#ffffff;fill-opacity:1;fill-rule:nonzero;stroke:none"
           id="path16469"
           inkscape:connector-curvature="0" /><path
           d="m 287.424,367.969 c -0.058,-8.102 -0.115,-16.209 -0.168,-24.323 -8.082,0.742 -16.549,1.787 -25.518,3.03 0.074,8.735 0.145,17.463 0.211,26.183 8.944,-2.005 17.394,-3.689 25.475,-4.89"
           style="fill:#ffffff;fill-opacity:1;fill-rule:nonzero;stroke:none"
           id="path16471"
           inkscape:connector-curvature="0" /><path
           d="m 551.697,374.175 c 0.032,-6.094 0.062,-12.192 0.095,-18.292 1.921,-0.601 3.187,-1.568 3.468,-2.632 -0.032,5.791 -0.064,11.58 -0.094,17.365 -0.273,1.38 -1.51,2.733 -3.469,3.559"
           style="fill:#ffffff;fill-opacity:1;fill-rule:nonzero;stroke:none"
           id="path16473"
           inkscape:connector-curvature="0" /><path
           d="m 287.624,397.085 c -0.054,-8.08 -0.115,-16.166 -0.166,-24.258 -8.081,1.29 -16.528,3.105 -25.467,5.261 0.067,8.709 0.143,17.412 0.21,26.107 8.91,-2.91 17.34,-5.364 25.423,-7.11"
           style="fill:#ffffff;fill-opacity:1;fill-rule:nonzero;stroke:none"
           id="path16475"
           inkscape:connector-curvature="0" /><path
           d="m 555.81,266.475 c 0.03,-5.77 0.058,-11.542 0.092,-17.318 0.036,1.135 -0.332,2.239 -0.265,3.279 -0.028,5.43 -0.056,10.858 -0.088,16.284 -0.066,-0.711 0.304,-1.468 0.261,-2.245"
           style="fill:#ffffff;fill-opacity:1;fill-rule:nonzero;stroke:none"
           id="path16477"
           inkscape:connector-curvature="0" /><path
           d="m 255.224,245.521 c -0.073,-8.99 -0.151,-17.985 -0.224,-26.989 -10.091,-2.851 -20.883,-6.107 -32.469,-9.377 0.098,9.994 0.196,19.979 0.293,29.953 11.553,2.238 22.335,4.462 32.4,6.413"
           style="fill:#ffffff;fill-opacity:1;fill-rule:nonzero;stroke:none"
           id="path16479"
           inkscape:connector-curvature="0" /><path
           d="m 555.699,287.221 c 0.033,-5.76 0.059,-11.521 0.092,-17.285 0.046,0.706 -0.325,1.392 -0.259,2.037 -0.027,5.421 -0.059,10.84 -0.087,16.255 -0.067,-0.315 0.3,-0.657 0.254,-1.007"
           style="fill:#ffffff;fill-opacity:1;fill-rule:nonzero;stroke:none"
           id="path16481"
           inkscape:connector-curvature="0" /><path
           d="m 255.492,277.819 c -0.073,-8.962 -0.15,-17.931 -0.223,-26.909 -10.061,-1.769 -20.839,-3.792 -32.387,-5.82 0.097,9.96 0.194,19.912 0.291,29.855 11.519,1.002 22.282,2.001 32.319,2.874"
           style="fill:#ffffff;fill-opacity:1;fill-rule:nonzero;stroke:none"
           id="path16483"
           inkscape:connector-curvature="0" /><path
           d="m 555.588,307.927 c 0.033,-5.748 0.061,-11.499 0.093,-17.253 0.047,0.281 -0.32,0.554 -0.252,0.802 -0.029,5.411 -0.057,10.82 -0.086,16.225 -0.058,0.056 0.298,0.141 0.245,0.226"
           style="fill:#ffffff;fill-opacity:1;fill-rule:nonzero;stroke:none"
           id="path16485"
           inkscape:connector-curvature="0" /><path
           d="m 255.759,310.023 c -0.079,-8.935 -0.15,-17.878 -0.222,-26.83 -10.033,-0.696 -20.791,-1.49 -32.305,-2.287 0.097,9.929 0.193,19.848 0.29,29.759 11.488,-0.224 22.226,-0.446 32.237,-0.642"
           style="fill:#ffffff;fill-opacity:1;fill-rule:nonzero;stroke:none"
           id="path16487"
           inkscape:connector-curvature="0" /><path
           d="m 555.479,328.594 c 0.033,-5.738 0.064,-11.478 0.091,-17.22 0.053,-0.152 -0.31,-0.307 -0.245,-0.431 -0.03,5.403 -0.059,10.801 -0.087,16.198 -0.078,0.455 0.291,0.95 0.241,1.453"
           style="fill:#ffffff;fill-opacity:1;fill-rule:nonzero;stroke:none"
           id="path16489"
           inkscape:connector-curvature="0" /><path
           d="m 256.026,342.134 c -0.08,-8.909 -0.15,-17.827 -0.222,-26.752 -10.008,0.373 -20.741,0.799 -32.223,1.225 0.097,9.897 0.191,19.784 0.289,29.663 11.46,-1.44 22.166,-2.877 32.156,-4.136"
           style="fill:#ffffff;fill-opacity:1;fill-rule:nonzero;stroke:none"
           id="path16491"
           inkscape:connector-curvature="0" /><path
           d="m 555.368,349.222 c 0.033,-5.726 0.061,-11.455 0.092,-17.188 0.052,-0.573 -0.308,-1.135 -0.238,-1.656 -0.025,5.392 -0.056,10.781 -0.087,16.168 -0.082,0.846 0.288,1.751 0.233,2.676"
           style="fill:#ffffff;fill-opacity:1;fill-rule:nonzero;stroke:none"
           id="path16493"
           inkscape:connector-curvature="0" /><path
           d="m 256.292,374.151 c -0.074,-8.884 -0.149,-17.775 -0.222,-26.673 -9.987,1.433 -20.686,3.072 -32.142,4.714 0.097,9.865 0.191,19.72 0.288,29.567 11.435,-2.653 22.104,-5.293 32.076,-7.608"
           style="fill:#ffffff;fill-opacity:1;fill-rule:nonzero;stroke:none"
           id="path16495"
           inkscape:connector-curvature="0" /><path
           d="m 555.258,369.812 c 0.028,-5.716 0.055,-11.434 0.092,-17.156 0.048,-0.995 -0.31,-1.968 -0.232,-2.88 -0.033,5.383 -0.059,10.763 -0.087,16.141 -0.078,1.234 0.282,2.549 0.227,3.895"
           style="fill:#ffffff;fill-opacity:1;fill-rule:nonzero;stroke:none"
           id="path16497"
           inkscape:connector-curvature="0" /><path
           d="m 256.557,406.074 c -0.068,-8.858 -0.155,-17.723 -0.221,-26.596 -9.969,2.489 -20.63,5.331 -32.062,8.184 0.091,9.833 0.19,19.656 0.288,29.472 11.415,-3.855 22.04,-7.691 31.995,-11.06"
           style="fill:#ffffff;fill-opacity:1;fill-rule:nonzero;stroke:none"
           id="path16499"
           inkscape:connector-curvature="0" /><path
           d="m 555.646,269.117 c 0.028,-5.363 0.056,-10.73 0.086,-16.099 0.272,0.979 1.395,1.795 3.005,2.27 -0.026,5.13 -0.056,10.258 -0.084,15.384 -1.589,-0.319 -2.709,-0.827 -3.007,-1.555"
           style="fill:#ffffff;fill-opacity:1;fill-rule:nonzero;stroke:none"
           id="path16501"
           inkscape:connector-curvature="0" /><path
           d="m 215.543,237.721 c -0.104,-10.189 -0.205,-20.387 -0.309,-30.594 -12.666,-3.467 -25.88,-6.753 -39.467,-9.381 0.133,11.199 0.264,22.387 0.399,33.563 13.535,1.797 26.726,4.043 39.377,6.412"
           style="fill:#ffffff;fill-opacity:1;fill-rule:nonzero;stroke:none"
           id="path16503"
           inkscape:connector-curvature="0" /><path
           d="m 555.544,288.406 c 0.027,-5.354 0.058,-10.712 0.085,-16.071 0.307,0.677 1.423,1.121 3.008,1.411 -0.027,5.122 -0.06,10.241 -0.083,15.358 -1.574,-0.142 -2.634,-0.282 -3.01,-0.698"
           style="fill:#ffffff;fill-opacity:1;fill-rule:nonzero;stroke:none"
           id="path16505"
           inkscape:connector-curvature="0" /><path
           d="m 215.912,274.323 c -0.103,-10.155 -0.198,-20.32 -0.307,-30.493 -12.647,-2.151 -25.833,-4.19 -39.36,-5.821 0.133,11.158 0.257,22.305 0.397,33.441 13.486,0.804 26.644,1.808 39.27,2.873"
           style="fill:#ffffff;fill-opacity:1;fill-rule:nonzero;stroke:none"
           id="path16507"
           inkscape:connector-curvature="0" /><path
           d="m 555.441,307.661 c 0.024,-5.345 0.055,-10.692 0.085,-16.043 0.403,0.35 1.44,0.443 3.01,0.555 -0.027,5.113 -0.053,10.224 -0.084,15.333 -1.567,0.031 -2.546,0.043 -3.011,0.155"
           style="fill:#ffffff;fill-opacity:1;fill-rule:nonzero;stroke:none"
           id="path16509"
           inkscape:connector-curvature="0" /><path
           d="m 216.28,310.804 c -0.097,-10.122 -0.203,-20.252 -0.306,-30.393 -12.621,-0.845 -25.774,-1.647 -39.253,-2.286 0.134,11.118 0.268,22.224 0.395,33.319 13.447,-0.179 26.57,-0.403 39.164,-0.64"
           style="fill:#ffffff;fill-opacity:1;fill-rule:nonzero;stroke:none"
           id="path16511"
           inkscape:connector-curvature="0" /><path
           d="m 555.338,326.883 c 0.027,-5.336 0.058,-10.675 0.086,-16.016 0.448,-0.204 1.444,-0.237 3.012,-0.298 -0.027,5.106 -0.053,10.207 -0.083,15.308 -1.578,0.205 -2.677,0.467 -3.015,1.006"
           style="fill:#ffffff;fill-opacity:1;fill-rule:nonzero;stroke:none"
           id="path16513"
           inkscape:connector-curvature="0" /><path
           d="m 216.647,347.164 c -0.097,-10.089 -0.202,-20.185 -0.305,-30.292 -12.588,0.453 -25.706,0.882 -39.146,1.224 0.133,11.077 0.266,22.143 0.393,33.198 13.418,-1.154 26.503,-2.602 39.058,-4.13"
           style="fill:#ffffff;fill-opacity:1;fill-rule:nonzero;stroke:none"
           id="path16515"
           inkscape:connector-curvature="0" /><path
           d="m 555.236,346.07 c 0.027,-5.326 0.055,-10.655 0.085,-15.987 0.332,-0.584 1.435,-0.912 3.014,-1.147 -0.03,5.095 -0.053,10.189 -0.083,15.281 -1.598,0.383 -2.726,1.019 -3.016,1.853"
           style="fill:#ffffff;fill-opacity:1;fill-rule:nonzero;stroke:none"
           id="path16517"
           inkscape:connector-curvature="0" /><path
           d="m 217.013,383.403 c -0.103,-10.054 -0.201,-20.118 -0.304,-30.191 -12.548,1.743 -25.627,3.392 -39.041,4.71 0.122,11.037 0.266,22.063 0.393,33.078 13.398,-2.128 26.443,-4.786 38.952,-7.597"
           style="fill:#ffffff;fill-opacity:1;fill-rule:nonzero;stroke:none"
           id="path16519"
           inkscape:connector-curvature="0" /><path
           d="m 555.134,365.225 c 0.027,-5.318 0.054,-10.637 0.085,-15.959 0.286,-0.884 1.414,-1.581 3.016,-1.995 -0.033,5.087 -0.059,10.172 -0.084,15.255 -1.626,0.567 -2.745,1.562 -3.017,2.699"
           style="fill:#ffffff;fill-opacity:1;fill-rule:nonzero;stroke:none"
           id="path16521"
           inkscape:connector-curvature="0" /><path
           d="m 217.377,419.524 c -0.109,-10.021 -0.206,-20.052 -0.303,-30.092 -12.501,3.022 -25.539,5.881 -38.934,8.172 0.127,10.997 0.251,21.983 0.391,32.959 13.388,-3.095 26.388,-6.965 38.846,-11.039"
           style="fill:#ffffff;fill-opacity:1;fill-rule:nonzero;stroke:none"
           id="path16523"
           inkscape:connector-curvature="0" /><path
           d="m 559.913,270.883 c 0.031,-5.093 0.059,-10.189 0.085,-15.287 2.648,0.54 6.063,0.732 10.187,0.8 -0.035,5.014 -0.06,10.026 -0.09,15.035 -4.121,-0.045 -7.525,-0.177 -10.182,-0.548"
           style="fill:#ffffff;fill-opacity:1;fill-rule:nonzero;stroke:none"
           id="path16525"
           inkscape:connector-curvature="0" /><path
           d="m 168.005,230.287 c -0.139,-11.333 -0.276,-22.678 -0.416,-34.035 -13.472,-2.305 -26.607,-3.762 -39.09,-4.174 0.169,11.798 0.336,23.584 0.495,35.357 12.453,0.287 25.549,1.277 39.011,2.852"
           style="fill:#ffffff;fill-opacity:1;fill-rule:nonzero;stroke:none"
           id="path16527"
           inkscape:connector-curvature="0" /><path
           d="m 559.813,289.199 c 0.03,-5.085 0.053,-10.172 0.084,-15.261 2.658,0.338 6.06,0.457 10.179,0.498 -0.027,5.004 -0.058,10.008 -0.09,15.009 -4.116,-0.02 -7.51,-0.08 -10.173,-0.246"
           style="fill:#ffffff;fill-opacity:1;fill-rule:nonzero;stroke:none"
           id="path16529"
           inkscape:connector-curvature="0" /><path
           d="m 168.504,270.991 c -0.14,-11.291 -0.275,-22.594 -0.415,-33.909 -13.459,-1.433 -26.548,-2.33 -38.996,-2.59 0.181,11.753 0.323,23.494 0.493,35.222 12.422,0.128 25.477,0.569 38.918,1.277"
           style="fill:#ffffff;fill-opacity:1;fill-rule:nonzero;stroke:none"
           id="path16531"
           inkscape:connector-curvature="0" /><path
           d="m 559.712,307.484 c 0.026,-5.076 0.057,-10.155 0.084,-15.236 2.663,0.133 6.057,0.18 10.173,0.196 -0.031,4.997 -0.063,9.993 -0.09,14.986 -4.113,0.005 -7.504,0.017 -10.167,0.054"
           style="fill:#ffffff;fill-opacity:1;fill-rule:nonzero;stroke:none"
           id="path16533"
           inkscape:connector-curvature="0" /><path
           d="m 169,311.546 c -0.14,-11.25 -0.279,-22.512 -0.413,-33.785 -13.436,-0.563 -26.485,-0.916 -38.903,-1.017 0.158,11.708 0.334,23.403 0.492,35.087 12.393,-0.028 25.415,-0.127 38.824,-0.285"
           style="fill:#ffffff;fill-opacity:1;fill-rule:nonzero;stroke:none"
           id="path16535"
           inkscape:connector-curvature="0" /><path
           d="m 559.611,325.739 c 0.027,-5.067 0.06,-10.137 0.083,-15.21 2.663,-0.071 6.054,-0.096 10.166,-0.105 -0.026,4.989 -0.058,9.976 -0.088,14.961 -4.112,0.029 -7.503,0.115 -10.161,0.354"
           style="fill:#ffffff;fill-opacity:1;fill-rule:nonzero;stroke:none"
           id="path16537"
           inkscape:connector-curvature="0" /><path
           d="m 169.495,351.951 c -0.146,-11.208 -0.272,-22.429 -0.412,-33.66 -13.403,0.301 -26.42,0.49 -38.809,0.544 0.158,11.663 0.331,23.314 0.489,34.952 12.369,-0.182 25.364,-0.817 38.732,-1.836"
           style="fill:#ffffff;fill-opacity:1;fill-rule:nonzero;stroke:none"
           id="path16539"
           inkscape:connector-curvature="0" /><path
           d="m 559.51,343.965 c 0.031,-5.06 0.057,-10.121 0.084,-15.186 2.657,-0.274 6.049,-0.371 10.16,-0.404 -0.03,4.98 -0.056,9.959 -0.09,14.936 -4.108,0.055 -7.507,0.21 -10.154,0.654"
           style="fill:#ffffff;fill-opacity:1;fill-rule:nonzero;stroke:none"
           id="path16541"
           inkscape:connector-curvature="0" /><path
           d="m 169.988,392.208 c -0.134,-11.167 -0.27,-22.347 -0.41,-33.537 -13.361,1.161 -26.352,1.886 -38.717,2.094 0.17,11.619 0.33,23.225 0.488,34.819 12.346,-0.336 25.321,-1.509 38.639,-3.376"
           style="fill:#ffffff;fill-opacity:1;fill-rule:nonzero;stroke:none"
           id="path16543"
           inkscape:connector-curvature="0" /><path
           d="m 559.41,362.159 c 0.027,-5.051 0.057,-10.104 0.083,-15.16 2.645,-0.475 6.045,-0.645 10.153,-0.703 -0.028,4.973 -0.061,9.943 -0.089,14.911 -4.107,0.081 -7.516,0.31 -10.147,0.952"
           style="fill:#ffffff;fill-opacity:1;fill-rule:nonzero;stroke:none"
           id="path16545"
           inkscape:connector-curvature="0" /><path
           d="m 170.479,432.317 c -0.128,-11.127 -0.275,-22.264 -0.409,-33.414 -13.307,2.012 -26.28,3.271 -38.624,3.632 0.171,11.574 0.328,23.137 0.486,34.688 12.329,-0.483 25.29,-2.191 38.547,-4.906"
           style="fill:#ffffff;fill-opacity:1;fill-rule:nonzero;stroke:none"
           id="path16547"
           inkscape:connector-curvature="0" /><path
           d="m 572.902,271.446 c 0.027,-5.007 0.062,-10.015 0.092,-15.026 5.201,0.003 10.972,-0.167 17.194,-0.387 -0.028,5.052 -0.072,10.102 -0.105,15.15 -6.217,0.152 -11.983,0.268 -17.181,0.263"
           style="fill:#ffffff;fill-opacity:1;fill-rule:nonzero;stroke:none"
           id="path16549"
           inkscape:connector-curvature="0" /><path
           d="m 121.903,227.349 c -0.171,-11.787 -0.337,-23.586 -0.507,-35.398 -11.148,-0.019 -21.454,0.851 -30.992,2.077 0.182,11.593 0.364,23.172 0.547,34.741 9.535,-0.844 19.822,-1.437 30.952,-1.42"
           style="fill:#ffffff;fill-opacity:1;fill-rule:nonzero;stroke:none"
           id="path16551"
           inkscape:connector-curvature="0" /><path
           d="m 572.792,289.452 c 0.033,-4.999 0.064,-9.999 0.092,-15.003 5.197,0.003 10.963,-0.102 17.179,-0.239 -0.034,5.043 -0.072,10.085 -0.106,15.124 -6.211,0.067 -11.972,0.119 -17.165,0.118"
           style="fill:#ffffff;fill-opacity:1;fill-rule:nonzero;stroke:none"
           id="path16553"
           inkscape:connector-curvature="0" /><path
           d="m 122.509,269.675 c -0.17,-11.741 -0.335,-23.495 -0.505,-35.261 -11.126,-0.013 -21.409,0.525 -30.944,1.288 0.17,11.549 0.362,23.085 0.544,34.61 9.53,-0.375 19.796,-0.642 30.905,-0.637"
           style="fill:#ffffff;fill-opacity:1;fill-rule:nonzero;stroke:none"
           id="path16555"
           inkscape:connector-curvature="0" /><path
           d="m 572.683,307.428 c 0.027,-4.99 0.06,-9.983 0.09,-14.978 5.193,0.001 10.954,-0.04 17.165,-0.095 -0.037,5.036 -0.069,10.069 -0.105,15.099 -6.206,-0.015 -11.962,-0.026 -17.15,-0.026"
           style="fill:#ffffff;fill-opacity:1;fill-rule:nonzero;stroke:none"
           id="path16557"
           inkscape:connector-curvature="0" /><path
           d="m 123.114,311.84 c -0.159,-11.696 -0.346,-23.405 -0.504,-35.126 -11.106,-0.007 -21.369,0.206 -30.897,0.506 0.194,11.504 0.36,22.998 0.542,34.477 9.519,0.084 19.769,0.144 30.859,0.143"
           style="fill:#ffffff;fill-opacity:1;fill-rule:nonzero;stroke:none"
           id="path16559"
           inkscape:connector-curvature="0" /><path
           d="m 572.572,325.374 c 0.029,-4.981 0.062,-9.966 0.092,-14.953 5.188,0 10.942,0.021 17.148,0.051 -0.033,5.027 -0.07,10.051 -0.103,15.074 -6.201,-0.099 -11.953,-0.173 -17.137,-0.172"
           style="fill:#ffffff;fill-opacity:1;fill-rule:nonzero;stroke:none"
           id="path16561"
           inkscape:connector-curvature="0" /><path
           d="m 123.715,353.843 c -0.17,-11.652 -0.331,-23.316 -0.501,-34.991 -11.086,0.002 -21.333,-0.111 -30.851,-0.271 0.17,11.462 0.358,22.911 0.541,34.349 9.504,0.542 19.742,0.924 30.811,0.913"
           style="fill:#ffffff;fill-opacity:1;fill-rule:nonzero;stroke:none"
           id="path16563"
           inkscape:connector-curvature="0" /><path
           d="m 572.463,343.292 c 0.03,-4.974 0.058,-9.95 0.092,-14.929 5.183,-0.004 10.933,0.082 17.133,0.196 -0.034,5.018 -0.068,10.034 -0.104,15.048 -6.194,-0.179 -11.941,-0.32 -17.121,-0.315"
           style="fill:#ffffff;fill-opacity:1;fill-rule:nonzero;stroke:none"
           id="path16565"
           inkscape:connector-curvature="0" /><path
           d="m 124.315,395.687 c -0.17,-11.608 -0.33,-23.227 -0.5,-34.859 -11.066,0.012 -21.301,-0.423 -30.803,-1.042 0.17,11.42 0.356,22.826 0.538,34.221 9.487,0.991 19.714,1.699 30.765,1.68"
           style="fill:#ffffff;fill-opacity:1;fill-rule:nonzero;stroke:none"
           id="path16567"
           inkscape:connector-curvature="0" /><path
           d="m 572.354,361.18 c 0.024,-4.966 0.06,-9.934 0.091,-14.905 5.178,-0.004 10.925,0.145 17.118,0.339 -0.039,5.011 -0.07,10.019 -0.103,15.026 -6.189,-0.263 -11.93,-0.465 -17.106,-0.46"
           style="fill:#ffffff;fill-opacity:1;fill-rule:nonzero;stroke:none"
           id="path16569"
           inkscape:connector-curvature="0" /><path
           d="m 124.913,437.37 c -0.171,-11.562 -0.328,-23.138 -0.498,-34.725 -11.048,0.016 -21.275,-0.736 -30.757,-1.807 0.17,11.377 0.354,22.741 0.536,34.094 9.464,1.441 19.685,2.467 30.719,2.438"
           style="fill:#ffffff;fill-opacity:1;fill-rule:nonzero;stroke:none"
           id="path16571"
           inkscape:connector-curvature="0" /><path
           d="m 600.989,270.901 c -2.333,0.061 -4.677,0.123 -7.022,0.184 0.03,-5.063 0.076,-10.127 0.107,-15.194 2.309,-0.086 4.617,-0.176 6.915,-0.263 z"
           style="fill:#ffffff;fill-opacity:1;fill-rule:nonzero;stroke:none"
           id="path16573"
           inkscape:connector-curvature="0" /><path
           d="m 85.499,229.272 c -0.195,-11.489 -0.382,-22.991 -0.552,-34.504 -8.818,1.244 -17.525,2.628 -26.499,3.42 0.195,11.152 0.38,22.292 0.574,33.422 8.958,-0.54 17.667,-1.488 26.477,-2.338"
           style="fill:#ffffff;fill-opacity:1;fill-rule:nonzero;stroke:none"
           id="path16575"
           inkscape:connector-curvature="0" /><path
           d="m 600.989,289.205 c -2.376,0.027 -4.762,0.057 -7.151,0.084 0.036,-5.054 0.065,-10.109 0.108,-15.168 2.352,-0.055 4.702,-0.111 7.043,-0.167 z"
           style="fill:#ffffff;fill-opacity:1;fill-rule:nonzero;stroke:none"
           id="path16577"
           inkscape:connector-curvature="0" /><path
           d="m 86.158,270.537 c -0.182,-11.446 -0.355,-22.906 -0.55,-34.376 -8.807,0.771 -17.516,1.634 -26.471,2.121 0.182,11.113 0.39,22.213 0.572,33.303 8.943,-0.241 17.649,-0.669 26.449,-1.048"
           style="fill:#ffffff;fill-opacity:1;fill-rule:nonzero;stroke:none"
           id="path16579"
           inkscape:connector-curvature="0" /><path
           d="m 600.989,307.483 c -2.419,-0.006 -4.848,-0.013 -7.28,-0.019 0.037,-5.045 0.071,-10.093 0.108,-15.143 2.395,-0.022 4.789,-0.045 7.172,-0.067 z"
           style="fill:#ffffff;fill-opacity:1;fill-rule:nonzero;stroke:none"
           id="path16581"
           inkscape:connector-curvature="0" /><path
           d="m 86.815,311.647 c -0.183,-11.404 -0.365,-22.82 -0.547,-34.248 -8.798,0.304 -17.504,0.644 -26.445,0.833 0.207,11.072 0.388,22.132 0.571,33.182 8.931,0.054 17.63,0.149 26.421,0.233"
           style="fill:#ffffff;fill-opacity:1;fill-rule:nonzero;stroke:none"
           id="path16583"
           inkscape:connector-curvature="0" /><path
           d="m 600.989,325.734 c -2.461,-0.041 -4.934,-0.084 -7.408,-0.126 0.036,-5.037 0.071,-10.076 0.107,-15.118 2.439,0.012 4.875,0.025 7.301,0.037 z"
           style="fill:#ffffff;fill-opacity:1;fill-rule:nonzero;stroke:none"
           id="path16585"
           inkscape:connector-curvature="0" /><path
           d="m 87.469,352.604 c -0.17,-11.361 -0.363,-22.734 -0.545,-34.12 -8.789,-0.161 -17.487,-0.342 -26.417,-0.446 0.17,11.032 0.398,22.052 0.568,33.063 8.924,0.345 17.612,0.961 26.394,1.503"
           style="fill:#ffffff;fill-opacity:1;fill-rule:nonzero;stroke:none"
           id="path16587"
           inkscape:connector-curvature="0" /><path
           d="m 600.989,343.958 c -2.503,-0.077 -5.018,-0.157 -7.536,-0.234 0.03,-5.029 0.076,-10.06 0.108,-15.094 2.481,0.047 4.96,0.097 7.428,0.144 z"
           style="fill:#ffffff;fill-opacity:1;fill-rule:nonzero;stroke:none"
           id="path16589"
           inkscape:connector-curvature="0" /><path
           d="m 88.121,393.41 c -0.194,-11.319 -0.361,-22.651 -0.543,-33.994 -8.781,-0.619 -17.467,-1.322 -26.389,-1.716 0.194,10.992 0.371,21.974 0.566,32.944 8.92,0.636 17.59,1.767 26.366,2.766"
           style="fill:#ffffff;fill-opacity:1;fill-rule:nonzero;stroke:none"
           id="path16591"
           inkscape:connector-curvature="0" /><path
           d="m 600.989,362.158 c -2.545,-0.115 -5.103,-0.234 -7.664,-0.349 0.031,-5.021 0.07,-10.044 0.107,-15.069 2.524,0.084 5.047,0.17 7.557,0.254 z"
           style="fill:#ffffff;fill-opacity:1;fill-rule:nonzero;stroke:none"
           id="path16593"
           inkscape:connector-curvature="0" /><path
           d="m 88.771,434.063 c -0.183,-11.278 -0.359,-22.567 -0.542,-33.868 -8.773,-1.079 -17.442,-2.288 -26.361,-2.975 0.182,10.952 0.357,21.894 0.564,32.824 8.92,0.929 17.569,2.563 26.339,4.019"
           style="fill:#ffffff;fill-opacity:1;fill-rule:nonzero;stroke:none"
           id="path16595"
           inkscape:connector-curvature="0" /><path
           d="m 53.398,231.896 c -0.182,-11.087 -0.386,-22.184 -0.581,-33.292 -10.039,0.605 -21.248,0.452 -33.914,-0.533 0.207,11.164 0.428,22.318 0.635,33.46 12.65,0.674 23.829,0.779 33.86,0.365"
           style="fill:#ffffff;fill-opacity:1;fill-rule:nonzero;stroke:none"
           id="path16597"
           inkscape:connector-curvature="0" /><path
           d="m 54.092,271.712 c -0.195,-11.046 -0.384,-22.103 -0.578,-33.171 -10.03,0.372 -21.203,0.281 -33.849,-0.331 0.218,11.125 0.425,22.237 0.632,33.339 12.626,0.305 23.776,0.348 33.795,0.163"
           style="fill:#ffffff;fill-opacity:1;fill-rule:nonzero;stroke:none"
           id="path16599"
           inkscape:connector-curvature="0" /><path
           d="m 54.784,311.386 c -0.194,-11.006 -0.382,-22.024 -0.576,-33.052 -10.017,0.148 -21.162,0.111 -33.785,-0.13 0.219,11.084 0.411,22.157 0.63,33.218 12.6,-0.068 23.726,-0.077 33.731,-0.036"
           style="fill:#ffffff;fill-opacity:1;fill-rule:nonzero;stroke:none"
           id="path16601"
           inkscape:connector-curvature="0" /><path
           d="m 55.474,350.917 c -0.195,-10.967 -0.381,-21.944 -0.575,-32.933 -10.002,-0.079 -21.125,-0.059 -33.72,0.07 0.207,11.044 0.421,22.076 0.628,33.097 12.569,-0.433 23.679,-0.5 33.667,-0.234"
           style="fill:#ffffff;fill-opacity:1;fill-rule:nonzero;stroke:none"
           id="path16603"
           inkscape:connector-curvature="0" /><path
           d="m 56.16,390.306 c -0.195,-10.927 -0.378,-21.866 -0.572,-32.815 -9.984,-0.301 -21.091,-0.226 -33.655,0.268 0.206,11.004 0.418,21.997 0.625,32.978 12.535,-0.799 23.635,-0.917 33.602,-0.431"
           style="fill:#ffffff;fill-opacity:1;fill-rule:nonzero;stroke:none"
           id="path16605"
           inkscape:connector-curvature="0" /><path
           d="m 56.844,429.554 c -0.182,-10.889 -0.375,-21.787 -0.57,-32.698 -9.963,-0.522 -21.062,-0.395 -33.591,0.464 0.207,10.965 0.416,21.918 0.623,32.861 12.498,-1.159 23.594,-1.338 33.538,-0.627"
           style="fill:#ffffff;fill-opacity:1;fill-rule:nonzero;stroke:none"
           id="path16607"
           inkscape:connector-curvature="0" /><path
           d="m 0.355,230.206 c 3.694,0.305 7.268,0.574 10.724,0.81 -0.231,-11.221 -0.433,-22.454 -0.652,-33.699 -3.253,-0.322 -6.61,-0.69 -10.072,-1.102 z"
           style="fill:#ffffff;fill-opacity:1;fill-rule:nonzero;stroke:none"
           id="path16609"
           inkscape:connector-curvature="0" /><path
           d="m 0.355,270.925 c 3.972,0.149 7.805,0.28 11.503,0.393 -0.218,-11.18 -0.442,-22.372 -0.649,-33.575 -3.497,-0.215 -7.113,-0.464 -10.854,-0.744 z"
           style="fill:#ffffff;fill-opacity:1;fill-rule:nonzero;stroke:none"
           id="path16611"
           inkscape:connector-curvature="0" /><path
           d="m 0.355,311.568 c 4.25,-0.036 8.342,-0.068 12.281,-0.094 -0.219,-11.14 -0.428,-22.291 -0.647,-33.453 C 8.25,277.93 4.374,277.824 0.355,277.704 Z"
           style="fill:#ffffff;fill-opacity:1;fill-rule:nonzero;stroke:none"
           id="path16613"
           inkscape:connector-curvature="0" /><path
           d="m 0.355,352.136 c 4.528,-0.251 8.877,-0.469 13.055,-0.654 -0.219,-11.098 -0.426,-22.209 -0.644,-33.331 -3.979,0.052 -8.114,0.113 -12.411,0.183 z"
           style="fill:#ffffff;fill-opacity:1;fill-rule:nonzero;stroke:none"
           id="path16615"
           inkscape:connector-curvature="0" /><path
           d="m 0.355,392.63 c 4.805,-0.496 9.411,-0.925 13.826,-1.283 -0.206,-11.059 -0.435,-22.129 -0.642,-33.21 -4.217,0.212 -8.609,0.463 -13.184,0.753 z"
           style="fill:#ffffff;fill-opacity:1;fill-rule:nonzero;stroke:none"
           id="path16617"
           inkscape:connector-curvature="0" /><path
           d="m 0.355,433.051 c 5.082,-0.771 9.943,-1.436 14.595,-1.986 -0.195,-11.018 -0.421,-22.047 -0.639,-33.088 -4.456,0.389 -9.104,0.856 -13.956,1.396 z"
           style="fill:#ffffff;fill-opacity:1;fill-rule:nonzero;stroke:none"
           id="path16619"
           inkscape:connector-curvature="0" /></g></g></g></svg>